<svg id="balance" xmlns="http://www.w3.org/2000/svg" width="21.886" height="21.886" viewBox="0 0 21.886 21.886">
  <path id="Path_1" data-name="Path 1" d="M132.542,452.924A1.924,1.924,0,0,0,130.618,451h-7.694A1.924,1.924,0,0,0,121,452.924v.684h11.542Z" transform="translate(-115.828 -431.721)" fill="#035aa6"/>
  <path id="Path_2" data-name="Path 2" d="M20.6,5.172V3.89H12.749a1.921,1.921,0,0,0-1.164-1.164V0H10.3V2.726A1.921,1.921,0,0,0,9.138,3.89H1.282V5.172h1.6L0,12.226a3.21,3.21,0,0,0,3.206,3.206H4.488a3.21,3.21,0,0,0,3.206-3.206L4.8,5.172H9.138A1.921,1.921,0,0,0,10.3,6.337V15.5A3.212,3.212,0,0,0,7.8,18h6.282a3.212,3.212,0,0,0-2.5-2.495V6.337a1.921,1.921,0,0,0,1.164-1.164h4.329l-2.886,7.053A3.21,3.21,0,0,0,17.4,15.432H18.68a3.21,3.21,0,0,0,3.206-3.206l-2.9-7.053ZM6.091,11.584H1.6L3.847,6.2Zm14.192,0H15.8L18.039,6.2Z" fill="#035aa6"/>
</svg>
