<svg xmlns="http://www.w3.org/2000/svg" width="16.51" height="22.97" viewBox="0 0 16.51 22.97">
  <g id="_001-book" data-name="001-book" transform="translate(-72)">
    <path id="Path_1572" data-name="Path 1572" d="M87.792,0H74.961A2.964,2.964,0,0,0,72,2.961V19.74a3.234,3.234,0,0,0,3.23,3.23H87.792a.718.718,0,0,0,0-1.436H75.23a1.795,1.795,0,1,1,0-3.589H87.792a.718.718,0,0,0,.718-.718V.718A.718.718,0,0,0,87.792,0ZM73.436,16.664V2.961a1.525,1.525,0,0,1,1.525-1.525h.045a.224.224,0,0,1,.224.224V16.293a.223.223,0,0,1-.207.224,3.206,3.206,0,0,0-1.263.348A.224.224,0,0,1,73.436,16.664Z" fill="#fff"/>
    <path id="Path_1573" data-name="Path 1573" d="M141.28,424H128.718a.718.718,0,1,0,0,1.436H141.28a.718.718,0,1,0,0-1.436Z" transform="translate(-53.488 -404.978)" fill="#fff"/>
  </g>
</svg>
