<svg id="_002-suit" data-name="002-suit" xmlns="http://www.w3.org/2000/svg" width="16.207" height="16.207" viewBox="0 0 16.207 16.207">
  <g id="Group_1497" data-name="Group 1497" transform="translate(0 2.243)">
    <g id="Group_1496" data-name="Group 1496">
      <path id="Path_1567" data-name="Path 1567" d="M15.508,71.416l-1.74-.568,1.092,1.364a1.52,1.52,0,0,1-.785,2.417,1.515,1.515,0,0,1-.236,1.521L9.28,81.722c-.02.023-.04.047-.062.068a1.491,1.491,0,0,1-.378.3.961.961,0,0,1-.158.07,1.522,1.522,0,0,1-.5.118.714.714,0,0,1-.081,0c-.026,0-.053,0-.078,0a1.526,1.526,0,0,1-.53-.128,1.072,1.072,0,0,1-.125-.058,1.527,1.527,0,0,1-.436-.361l0,0L2.369,76.152a1.515,1.515,0,0,1-.238-1.522,1.52,1.52,0,0,1-.786-2.415l1.093-1.366L.7,71.416a1.012,1.012,0,0,0-.7.963V83.8a1.013,1.013,0,0,0,1.013,1.013H15.194A1.013,1.013,0,0,0,16.207,83.8V72.38A1.012,1.012,0,0,0,15.508,71.416ZM8.1,83.8a.506.506,0,1,1,.506-.506A.507.507,0,0,1,8.1,83.8Z" transform="translate(0 -70.848)" fill="#fff"/>
    </g>
  </g>
  <g id="Group_1499" data-name="Group 1499" transform="translate(2.026)">
    <g id="Group_1498" data-name="Group 1498">
      <path id="Path_1568" data-name="Path 1568" d="M76.045,4.242,74.019,1.71a.5.5,0,0,0-.4-.174L73.117,0H67.039l-.5,1.536a.5.5,0,0,0-.4.174L64.111,4.242a.506.506,0,0,0,.3.812l1.6.321-.851.85a.507.507,0,0,0-.033.679l4.558,5.571,0,0a.5.5,0,0,0,.141.119c.005,0,.012,0,.017.005a.506.506,0,0,0,.226.059h.008a.506.506,0,0,0,.226-.059c.006,0,.012,0,.017-.005a.5.5,0,0,0,.141-.119l0,0L75.028,6.9a.506.506,0,0,0-.034-.679l-.85-.85,1.6-.321a.506.506,0,0,0,.3-.812Zm-5.967,6.379-2.1-5.992,2.1-2.1L68.255,1.013H71.9L70.078,2.532l2.1,2.1Z" transform="translate(-64.001)" fill="#fff"/>
    </g>
  </g>
</svg>
